HIERARCHY
ROOT Hips
{
	OFFSET 0.0000 0.0000 0.0000
	CHANNELS 6 Xposition Yposition Zposition Zrotation Xrotation Yrotation
	JOINT Ab
	{
		OFFSET -0.0000 8.0846 -0.0000
		CHANNELS 3 Zrotation Xrotation Yrotation
		JOINT Chest
		{
			OFFSET -0.0000 25.0068 -0.0000
			CHANNELS 3 Zrotation Xrotation Yrotation
			JOINT Neck
			{
				OFFSET -0.0000 25.0068 0.0000
				CHANNELS 3 Zrotation Xrotation Yrotation
				JOINT Head
				{
					OFFSET -0.0000 10.7556 0.0000
					CHANNELS 3 Zrotation Xrotation Yrotation
					End Site
					{
						OFFSET -0.0000 16.6222 0.0000
					}
				}
			}
			JOINT LeftCollar
			{
				OFFSET -0.0000 25.0068 0.0000
				CHANNELS 3 Zrotation Xrotation Yrotation
				JOINT LeftShoulder
				{
					OFFSET 19.5556 -0.0000 0.0000
					CHANNELS 3 Zrotation Xrotation Yrotation
					JOINT LeftElbow
					{
						OFFSET 27.1828 0.0000 0.0000
						CHANNELS 3 Zrotation Xrotation Yrotation
						JOINT LeftWrist
						{
							OFFSET 23.3157 0.0000 0.0000
							CHANNELS 3 Zrotation Xrotation Yrotation
							End Site
							{
								OFFSET 0.0000 -14.6667 0.0000
							}
						}
					}
				}
			}
			JOINT RightCollar
			{
				OFFSET -0.0000 25.0068 0.0000
				CHANNELS 3 Zrotation Xrotation Yrotation
				JOINT RightShoulder
				{
					OFFSET -19.5556 0.0000 0.0000
					CHANNELS 3 Zrotation Xrotation Yrotation
					JOINT RightElbow
					{
						OFFSET -27.1828 0.0000 0.0000
						CHANNELS 3 Zrotation Xrotation Yrotation
						JOINT RightWrist
						{
							OFFSET -23.3157 0.0000 0.0000
							CHANNELS 3 Zrotation Xrotation Yrotation
							End Site
							{
								OFFSET -0.0000 -14.6667 0.0000
							}
						}
					}
				}
			}
		}
	}
	JOINT LeftHip
	{
		OFFSET 11.7333 0.0000 0.0000
		CHANNELS 3 Zrotation Xrotation Yrotation
		JOINT LeftKnee
		{
			OFFSET -0.0000 -40.8688 0.0000
			CHANNELS 3 Zrotation Xrotation Yrotation
			JOINT LeftAnkle
			{
				OFFSET -0.0000 -44.4337 0.0000
				CHANNELS 3 Zrotation Xrotation Yrotation
				End Site
				{
					OFFSET -0.0000 -4.8889 16.6222
				}
			}
		}
	}
	JOINT RightHip
	{
		OFFSET -11.7333 0.0000 0.0000
		CHANNELS 3 Zrotation Xrotation Yrotation
		JOINT RightKnee
		{
			OFFSET -0.0000 -40.8688 0.0000
			CHANNELS 3 Zrotation Xrotation Yrotation
			JOINT RightAnkle
			{
				OFFSET -0.0000 -44.4337 0.0000
				CHANNELS 3 Zrotation Xrotation Yrotation
				End Site
				{
					OFFSET -0.0000 -4.8889 16.6222
				}
			}
		}
	}
}
MOTION
Frames: 14
Frame Time: 0.010000
3.1032 82.8184 105.5761 2.6314 356.1092 169.9197 4.0406 7.3613 3.5707 353.6725 10.0793 4.3900 2.8347 335.7849 2.4219 358.6250 358.8455 1.7977 341.4866 357.7452 13.4970 298.5281 20.5357 9.1171 18.1187 353.8287 322.9241 88.0006 357.6710 344.1054 20.1484 359.6899 358.3630 21.9374 45.8069 49.4855 326.4941 347.2999 40.5599 273.1699 349.3263 8.3980 8.7886 323.9452 2.9927 354.7909 18.0340 7.3264 353.5242 348.4189 29.8900 3.1027 5.1370 359.2959 358.7505 26.7700 18.1217 355.5390 333.4082 337.6761 
3.0950 82.5690 104.0046 2.6377 356.2119 169.4056 3.7602 7.2290 3.8792 353.7516 10.0927 4.6694 2.4809 335.7393 2.3053 359.1373 358.9707 1.7643 341.3257 357.7539 13.2743 297.8867 19.4175 9.6028 18.1784 353.9249 323.7285 87.6333 357.8998 344.5989 20.2098 359.7104 358.4461 21.1533 45.5157 49.9855 326.4930 347.4240 40.1696 273.5842 349.0742 8.3178 8.9288 324.1227 2.6452 354.7912 18.6522 6.7517 353.0510 347.4746 29.8508 2.8084 5.8008 359.4978 358.7052 27.4550 17.4276 355.8208 333.4288 338.6674 
3.0096 82.3370 102.3856 2.4821 356.1204 168.7240 3.5322 6.8305 4.2417 353.5030 10.1169 5.0284 2.4194 335.6228 2.2525 359.4512 359.2024 1.7180 341.2684 357.7654 13.1985 297.2969 18.6400 9.8441 18.4174 353.9459 324.6477 86.6576 358.1193 345.1118 20.4238 359.6905 358.3693 20.2371 45.2501 50.6729 326.7400 347.6982 39.7667 273.5017 349.0266 8.3866 9.0333 324.1588 2.2352 354.4781 19.7849 6.4135 354.5005 347.5336 30.1417 2.2491 6.0847 359.7457 358.6033 28.3623 17.0375 356.7950 333.6245 339.8390 
2.8961 82.1208 100.7659 2.2565 355.8948 168.1463 3.2719 6.3220 4.5480 353.2419 10.0309 5.3226 2.4734 335.4779 2.1486 359.6427 359.5638 1.5965 341.2818 357.8267 12.7810 296.8683 16.4133 10.3665 17.7477 354.3751 324.9867 86.5513 358.3866 344.3812 20.6197 359.6599 358.0819 19.3673 45.4207 51.3427 326.5939 347.7735 39.0756 273.6519 348.8323 8.2689 9.0589 323.9694 1.8749 353.7867 21.5059 6.1010 355.3435 348.1550 29.5404 1.6614 6.0990 359.7812 358.2644 29.5184 16.7203 358.2783 333.9710 341.4883 
2.7962 81.9276 99.1168 2.0354 355.8783 167.7534 2.8945 6.0502 4.7714 353.1119 9.8616 5.5188 2.4560 335.4377 1.9750 0.0457 359.7058 1.4224 341.1851 357.8634 12.3125 296.5032 14.8789 10.6849 17.4431 354.5537 325.6840 86.4535 358.4579 344.2884 20.7658 359.6218 357.8953 19.5672 45.2664 51.0169 326.9160 348.1052 38.7443 273.6987 348.7167 8.7234 8.9382 323.8681 1.8032 352.8518 23.4624 5.7220 355.6616 349.2385 30.4453 1.0823 6.3067 359.8528 357.9814 30.7214 16.6092 0.3055 334.2805 342.8253 
2.7129 81.8157 97.6488 1.8016 355.9472 167.4480 2.4596 5.8158 4.9506 353.1109 9.7872 5.6657 2.5062 335.2774 1.8743 0.2742 0.0052 1.3105 341.0579 357.9963 10.9320 296.6914 9.1463 11.6503 14.8257 355.7353 324.9569 87.6487 358.6148 341.4726 20.8453 359.5830 357.6652 19.8898 45.0297 50.6284 327.4270 348.4616 38.4635 273.6977 348.6833 9.0549 8.8273 323.8253 1.5772 351.9925 25.2081 5.6330 355.3328 349.9217 31.0776 0.6367 6.3271 359.7400 357.3452 32.1425 16.7679 2.4511 334.7304 344.1868 
2.5910 81.7381 95.9777 1.4720 355.9567 167.1842 1.9223 5.6339 5.0772 353.0566 9.5615 5.7518 2.5765 335.0720 1.7571 0.5359 0.3304 1.1717 340.8311 358.1204 9.9966 296.7511 5.8629 12.1511 13.7077 356.0183 324.7745 87.9187 358.7906 340.1435 20.9395 359.5569 357.5474 20.7511 44.8269 49.6128 327.8439 348.6948 38.3186 273.9289 348.5147 9.5572 8.6484 323.6187 1.5644 351.3212 27.2732 5.5762 355.3393 349.8353 31.2595 0.1577 6.0397 359.4927 356.4438 34.1160 17.9204 3.8354 335.8247 344.3281 
2.4371 81.7263 94.1783 1.0040 356.0305 167.0318 1.2286 5.5412 5.1421 352.9455 9.3559 5.7782 2.9670 334.5287 1.7201 0.4705 0.9375 1.0270 340.6624 358.2485 9.2238 296.8115 3.4668 12.2679 13.1069 356.1210 324.9320 88.0107 358.9401 339.4424 21.0270 359.5183 357.3691 21.8859 44.6389 48.4319 328.2033 348.8761 38.1174 274.1898 348.2042 10.1581 8.2404 323.5096 1.6485 350.7129 29.2983 5.7584 355.1791 349.9279 31.1716 359.5478 5.5220 359.5673 355.7013 36.5952 17.5410 4.2123 338.4678 344.6288 
2.3275 81.8054 92.5462 0.6235 356.2746 167.0350 0.6289 5.6107 5.1615 352.7986 9.3603 5.7816 3.2330 333.8138 1.6639 0.6376 1.4461 0.8782 340.6136 358.4103 8.2211 297.0501 359.9401 12.4812 11.8323 356.5936 324.6043 88.4508 359.1519 337.9543 20.9803 359.5268 357.4065 23.9292 44.1696 46.5271 328.7229 349.0977 38.2511 274.1999 348.2478 10.8046 7.8085 323.7527 1.8543 350.2480 30.9346 6.0062 355.8120 350.6463 30.9613 359.0924 4.9093 0.0444 355.4357 39.2328 16.1051 5.4558 341.1545 345.9720 
2.2213 81.9327 90.9175 0.3303 356.4861 167.1427 0.2480 5.6479 5.0904 352.5594 9.3038 5.7079 3.3599 333.5433 1.5913 0.9410 1.6001 0.7673 340.6467 358.5771 7.3233 297.1738 357.3091 12.6194 10.8571 356.8796 324.4905 88.7643 359.3887 336.6938 21.0258 359.5040 357.3012 25.2822 43.8696 45.1516 329.3272 349.3776 38.0932 273.9241 348.3043 10.8958 7.4153 324.2370 2.1350 349.7360 32.1866 5.5983 356.1650 351.1887 30.7891 358.7011 4.0905 0.8208 355.6823 42.1399 12.8258 6.3834 344.7034 348.2998 
2.1072 82.0879 89.3016 0.1103 356.6340 167.3074 0.0934 5.7120 4.9143 352.2036 9.0738 5.5367 3.4277 333.4770 1.5603 1.3107 1.6764 0.7240 340.6789 358.7194 6.6519 297.2916 355.6136 12.5825 10.2283 357.0159 324.5892 88.6582 359.6688 335.7258 21.0508 359.4895 357.3414 26.7002 43.8799 43.6486 329.9035 349.6679 37.7069 273.1817 348.5414 10.4754 7.0018 324.8799 2.4343 349.3567 33.0782 5.1832 356.2789 351.6236 31.0061 358.3614 2.9603 1.5040 356.4292 45.3630 8.6323 5.9533 348.5714 349.9085 
1.9687 82.2493 87.7147 359.9330 356.7054 167.5063 0.0994 5.7082 4.6435 351.8191 8.8498 5.2814 3.5358 333.4374 1.6350 1.5204 1.8855 0.7808 340.7176 358.8263 6.2715 297.2282 355.3219 12.2698 10.0915 356.9418 324.9012 88.6929 359.6294 335.1943 20.9725 359.5252 357.4409 28.3030 43.9361 41.8976 330.4353 349.9029 37.6083 273.0556 348.4603 11.0149 6.4963 325.5592 2.8022 349.2839 33.7522 5.0478 356.4379 351.6666 30.8694 358.0624 1.5239 1.7284 356.9863 48.6876 5.9084 1.1232 353.8238 348.1369 
1.8277 82.4193 86.1606 359.8103 356.7881 167.7064 0.1150 5.7630 4.3638 351.5529 8.5659 5.0027 3.7838 333.4627 1.8604 1.4814 2.1358 0.9586 340.7938 358.9220 5.8984 297.2212 354.8995 12.0154 9.8010 357.0018 324.9116 87.9917 359.7720 334.0966 20.7980 359.5673 357.6922 30.0317 43.8541 40.1715 331.3360 350.3545 37.2972 272.3313 348.4892 11.3719 6.0334 326.3347 3.0578 349.1741 34.3014 4.8476 4.8653 354.4175 24.5630 357.8561 359.9301 1.6616 356.8874 52.4375 4.9885 5.1788 355.8248 350.7736 
1.6885 82.5885 84.6382 359.7398 356.9148 167.9060 0.4036 5.8634 3.9185 351.0171 8.3973 4.5996 4.0363 333.4148 2.1707 1.5091 2.4258 1.2121 341.0304 358.9989 5.8275 297.0491 355.2251 11.3650 9.5474 357.0535 325.0336 87.9343 359.6709 333.4128 20.6194 359.6297 358.1995 32.1812 43.7019 38.0318 332.0532 350.6241 37.3540 272.7241 348.7995 12.6232 5.6085 327.2079 3.2291 349.0706 34.7621 4.7086 0.5165 352.8562 23.5147 357.7190 358.2803 1.4770 356.5149 56.1997 4.6239 5.2316 358.2519 351.0399 
